<svg height="100" width="100" fill="#fff" xmlns="http://www.w3.org/2000/svg"><path style="text-indent:0;text-transform:none;direction:ltr;block-progression:tb;baseline-shift:baseline;color:#000;enable-background:accumulate" d="M8 961.362a3 3 0 1 0 0 6h9.97c4.964 12.298 9.855 24.618 14.78 36.938l-4.53 10.906c-.38.91-.274 2.006.274 2.825a3.055 3.055 0 0 0 2.506 1.331h50c1.585.022 3.043-1.415 3.043-3s-1.458-3.022-3.043-3H35.5l2.594-6.187 48.156-3.844c1.26-.1 2.402-1.081 2.688-2.313l6-26c.392-1.75-1.143-3.662-2.938-3.656H26.032l-3.25-8.125c-.445-1.1-1.595-1.875-2.782-1.875zm20.438 16h59.781l-4.656 20.188-45.594 3.625zm12.562 46c-5.487 0-10 4.513-10 10s4.513 10 10 10c5.488 0 10-4.513 10-10s-4.512-10-10-10zm30 0c-5.487 0-10 4.513-10 10s4.513 10 10 10c5.488 0 10-4.513 10-10s-4.512-10-10-10zm-30 6c2.245 0 4 1.755 4 4s-1.755 4-4 4c-2.244 0-4-1.755-4-4 0-2.244 1.756-4 4-4zm30 0c2.245 0 4 1.756 4 4 0 2.245-1.755 4-4 4-2.244 0-4-1.755-4-4s1.756-4 4-4z" overflow="visible" transform="translate(0 -952.362)"/></svg>