<svg width="277" height="68" fill="none" xmlns="http://www.w3.org/2000/svg"><path d="M101.475 18.242V.774h-7.386V20.08c0 1.602-.117 3.674-2.227 3.674-1.876 0-2.15-1.915-2.228-3.361h-7.855c0 4.22 1.72 7.66 5.823 9.144 1.211.469 2.58.703 3.908.703 3.087 0 6.213-1.367 8.167-3.79 1.798-2.267 1.798-5.432 1.798-8.207ZM128.501 29.692V8.004h-6.487v2.306h-.078c-1.29-2.15-3.947-3.049-6.331-3.049-6.526 0-10.903 5.237-10.903 11.568 0 6.447 4.221 11.606 10.903 11.606 2.345 0 5.159-.86 6.331-3.087h.078v2.344h6.487Zm-6.487-10.863c0 3.126-2.266 5.549-5.432 5.549-3.048 0-5.393-2.462-5.393-5.471 0-3.088 2.189-5.588 5.354-5.588 3.166 0 5.471 2.344 5.471 5.51ZM166.529 29.692v-11.84c0-3.322.117-5.901-2.345-8.402-1.524-1.563-3.556-2.189-5.706-2.189-2.93 0-5.314 1.407-6.877 3.87-1.329-2.463-3.439-3.87-6.253-3.87-2.462 0-4.728.821-5.979 3.048h-.078V8.005h-6.057v21.688h6.487V18.164c0-2.54.664-4.806 3.673-4.806 2.736 0 3.244 2.305 3.244 4.533v11.801h6.487v-11.84c0-2.462.703-4.494 3.595-4.494 3.009 0 3.322 2.422 3.322 4.806v11.528h6.487ZM187.348 23.049c0-7.66-10.903-5.744-10.903-9.144 0-.977.977-1.446 1.836-1.446 1.134 0 1.993.43 2.033 1.641h6.369c-.429-4.611-3.986-6.839-8.323-6.839-4.182 0-8.402 2.619-8.402 7.152 0 3.048 2.579 4.728 5.158 5.666.938.352 1.876.664 2.814.977 1.172.469 2.931.938 2.931 2.501 0 1.133-1.29 1.68-2.267 1.68-1.289 0-2.266-.664-2.462-1.993h-6.448c.508 4.768 4.299 7.19 8.832 7.19 4.416 0 8.832-2.5 8.832-7.385ZM201.495 12.928V8.004h-3.126V.774h-6.487v7.23h-3.205v4.924h3.205v16.764h6.487V12.928h3.126ZM226.503 29.692V8.004h-6.487v2.306h-.078c-1.29-2.15-3.947-3.049-6.331-3.049-6.526 0-10.903 5.237-10.903 11.568 0 6.447 4.221 11.606 10.903 11.606 2.345 0 5.158-.86 6.331-3.087h.078v2.344h6.487Zm-6.487-10.863c0 3.126-2.267 5.549-5.432 5.549-3.048 0-5.393-2.462-5.393-5.471 0-3.088 2.188-5.588 5.354-5.588 3.165 0 5.471 2.344 5.471 5.51ZM253.158 21.447h-6.604c-.977 1.876-2.54 2.892-4.689 2.892-3.166 0-5.159-2.462-5.159-5.51 0-2.931 1.876-5.51 5.002-5.51 2.228 0 3.908 1.015 4.846 3.048h6.565c-1.133-5.51-5.94-9.106-11.489-9.106-6.448 0-11.45 5.12-11.45 11.529 0 6.486 5.119 11.606 11.607 11.606 5.471 0 10.121-3.634 11.371-8.95ZM276.672 8.004h-7.699l-6.018 7.855h-.078V.774h-6.487v28.918h6.487V19.258h.078l6.135 10.434h7.347l-7.933-12.153 8.168-9.535Z" fill="#fff"/><path d="M96.862 65.577c-2.548 0-4.856-.553-6.923-1.658-2.044-1.13-3.654-2.681-4.832-4.652-1.154-1.972-1.731-4.195-1.731-6.672 0-2.476.589-4.7 1.767-6.67 1.178-1.972 2.788-3.51 4.832-4.617 2.067-1.13 4.375-1.694 6.924-1.694 2.067 0 3.954.36 5.661 1.081a11.546 11.546 0 0 1 4.327 3.138l-3.029 2.848c-1.827-1.97-4.075-2.957-6.743-2.957-1.731 0-3.282.385-4.652 1.154a8.059 8.059 0 0 0-3.21 3.138c-.769 1.346-1.153 2.873-1.153 4.58 0 1.706.384 3.233 1.154 4.58a8.309 8.309 0 0 0 3.209 3.172c1.37.746 2.921 1.118 4.652 1.118 2.668 0 4.916-.997 6.743-2.993l3.029 2.885c-1.178 1.37-2.632 2.416-4.363 3.138-1.707.72-3.594 1.081-5.662 1.081ZM121.899 65.577c-2.572 0-4.892-.553-6.96-1.658-2.067-1.13-3.69-2.681-4.868-4.652-1.178-1.996-1.767-4.22-1.767-6.672s.589-4.663 1.767-6.635c1.178-1.995 2.801-3.546 4.868-4.652 2.068-1.13 4.388-1.694 6.96-1.694s4.892.564 6.96 1.694c2.067 1.106 3.69 2.645 4.868 4.616 1.178 1.971 1.767 4.195 1.767 6.671 0 2.477-.589 4.7-1.767 6.672-1.178 1.971-2.801 3.522-4.868 4.651-2.068 1.106-4.388 1.66-6.96 1.66Zm0-4.11c1.683 0 3.197-.373 4.544-1.118a8.38 8.38 0 0 0 3.173-3.174c.769-1.37 1.154-2.897 1.154-4.58 0-1.682-.385-3.197-1.154-4.543a8.056 8.056 0 0 0-3.173-3.174c-1.347-.769-2.861-1.154-4.544-1.154-1.683 0-3.197.385-4.544 1.154a8.056 8.056 0 0 0-3.173 3.174c-.769 1.346-1.154 2.86-1.154 4.543 0 1.683.385 3.21 1.154 4.58a8.38 8.38 0 0 0 3.173 3.174c1.347.745 2.861 1.117 4.544 1.117ZM162.149 39.974v25.243h-3.859l-13.919-17.093v17.093h-4.652V39.974h3.859l13.919 17.093V39.974h4.652ZM172.857 43.905v7.68h12.188v3.967h-12.188v9.665h-4.688V39.974h18.427v3.93h-13.739Z" fill="#C1C5CC"/><path d="M213.603 60.457v4.76h-19.076V61.43l9.736-9.195c1.034-.986 1.731-1.827 2.092-2.524.36-.722.541-1.43.541-2.128 0-1.01-.349-1.78-1.046-2.308-.673-.553-1.671-.83-2.993-.83-1.106 0-2.104.217-2.993.65-.89.408-1.635 1.034-2.236 1.875l-4.255-2.74c.986-1.467 2.344-2.61 4.075-3.426 1.731-.842 3.714-1.263 5.95-1.263 1.875 0 3.51.313 4.904.938 1.418.6 2.512 1.466 3.282 2.596.793 1.106 1.19 2.416 1.19 3.931 0 1.37-.289 2.656-.866 3.858-.577 1.203-1.695 2.573-3.353 4.111l-5.806 5.482h10.854ZM227.128 65.65c-2.092 0-3.955-.517-5.589-1.551-1.635-1.034-2.921-2.524-3.859-4.472-.914-1.971-1.37-4.315-1.37-7.032 0-2.716.456-5.048 1.37-6.995.938-1.972 2.224-3.474 3.859-4.508 1.634-1.034 3.497-1.55 5.589-1.55 2.092 0 3.955.516 5.589 1.55 1.635 1.034 2.909 2.536 3.823 4.508.937 1.947 1.406 4.279 1.406 6.995 0 2.717-.469 5.06-1.406 7.032-.914 1.948-2.188 3.438-3.823 4.472-1.634 1.034-3.497 1.55-5.589 1.55Zm0-4.94c1.539 0 2.741-.662 3.606-1.984.89-1.322 1.334-3.366 1.334-6.13 0-2.765-.444-4.809-1.334-6.131-.865-1.322-2.067-1.983-3.606-1.983-1.515 0-2.717.66-3.606 1.983-.866 1.322-1.298 3.366-1.298 6.13 0 2.765.432 4.809 1.298 6.13.889 1.323 2.091 1.984 3.606 1.984ZM260.011 60.457v4.76h-19.076V61.43l9.736-9.195c1.034-.986 1.731-1.827 2.092-2.524.361-.722.541-1.43.541-2.128 0-1.01-.349-1.78-1.046-2.308-.673-.553-1.671-.83-2.993-.83-1.106 0-2.104.217-2.993.65-.89.408-1.635 1.034-2.236 1.875l-4.255-2.74c.986-1.467 2.344-2.61 4.075-3.426 1.731-.842 3.714-1.263 5.95-1.263 1.875 0 3.51.313 4.904.938 1.419.6 2.512 1.466 3.282 2.596.793 1.106 1.19 2.416 1.19 3.931 0 1.37-.289 2.656-.866 3.858-.577 1.203-1.695 2.573-3.353 4.111l-5.806 5.482h10.854ZM275.507 39.974v25.243h-5.842V44.662h-5.048v-4.688h10.89Z" fill="#3FDFF0"/><path fill-rule="evenodd" clip-rule="evenodd" d="M0 34.08C0 15.494 15.026.467 33.613.467h33.613V34.08c0 18.587-15.026 33.613-33.613 33.613S0 52.667 0 34.08Zm9.323 1.387c.702 12.288 10.569 22.155 22.857 22.857V35.467H9.323ZM35 35.514h22.856C57.154 47.8 47.288 57.668 35 58.37V35.514ZM57.886 9.76H35v22.886h22.886V9.761Z" fill="#F0047F"/><path d="M32.18 58.324c-12.288-.702-22.155-10.569-22.857-22.857H32.18v22.857ZM35 35.514h22.856C57.154 47.8 47.288 57.668 35 58.37V35.514ZM35 9.76h22.886v22.887H35V9.761Z" fill="#fff"/></svg>