<?xml version="1.0" standalone="no"?>
<!DOCTYPE svg PUBLIC "-//W3C//DTD SVG 20010904//EN"
 "http://www.w3.org/TR/2001/REC-SVG-20010904/DTD/svg10.dtd">
<svg version="1.0" xmlns="http://www.w3.org/2000/svg"
 width="260.000000pt" height="260.000000pt" viewBox="0 0 260.000000 260.000000"
 preserveAspectRatio="xMidYMid meet">
<metadata>
Created by potrace 1.14, written by Peter Selinger 2001-2017
</metadata>
<g transform="translate(0.000000,260.000000) scale(0.100000,-0.100000)"
fill="#000000" stroke="none">
<path d="M1125 2589 c-216 -28 -454 -129 -627 -268 -245 -196 -402 -448 -469
-751 -31 -136 -33 -389 -6 -517 111 -522 494 -911 1007 -1024 136 -31 389 -33
517 -6 515 110 896 478 1021 987 l26 105 3 743 4 742 -703 -1 c-387 -1 -734
-6 -773 -10z m1113 -791 l-3 -443 -440 0 -440 0 -3 443 -2 442 445 0 445 0 -2
-442z m-993 -993 l0 -440 -50 3 c-130 9 -318 80 -439 166 -214 152 -358 396
-391 659 l-7 57 443 -2 444 -3 0 -440z m987 390 c-9 -130 -80 -318 -166 -439
-152 -214 -396 -358 -659 -391 l-57 -7 0 439 c0 242 3 443 7 446 3 4 203 6
442 5 l436 -3 -3 -50z"/>
</g>
</svg>
